# xmcd CD database file
#
# Track frame offsets:
#	150
#	11035
#	25712
#	36780
#	50047
#	61597
#	71770
#	86690
#	96235
#	111042
#	120807
#	132345
#	144552
#	157117
#	167135
#	180182
#
# Disc length: 2576 seconds
#
# Revision: 4
# Processed by: cddbd v1.5.2PL0 Copyright (c) Steve Scherf et al.
# Submitted via: CDex 1.70beta2
#
DISCID=cf0a0e10
DTITLE=THE KENDALLS - 16 GREATEST HITS
DYEAR=1999
DGENRE=Country
TTITLE0=HEAVEN'S JUST A SIN AWAY
TTITLE1=MAKIN' BELIEVE
TTITLE2=IT DON'T FEEL LIKE SINNIN' TO ME
TTITLE3=PITTSBURGH STEALERS
TTITLE4=SWEET DESIRE
TTITLE5=I HAD A LOVELY TIME
TTITLE6=JUST LIKE REAL PEOPLE
TTITLE7=I DON'T DO LIKE THAT NO MORE
TTITLE8=NEVER MY LOVE
TTITLE9=YOU'D MAKE AN ANGEL WANNA CHEAT
TTITLE10=I'M ALREADY BLUE
TTITLE11=PUT IT OFF UNTIL TOMORROW
TTITLE12=HEART OF THE MATTER
TTITLE13=TEACH ME TO CHEAT
TTITLE14=IF YOU'RE WAITING ON ME (YOU'RE BACKING UP)
TTITLE15=THANK GOD FOR THE RADIO
EXTD=YEAR: 1999
EXTT0=
EXTT1=
EXTT2=
EXTT3=
EXTT4=
EXTT5=
EXTT6=
EXTT7=
EXTT8=
EXTT9=
EXTT10=
EXTT11=
EXTT12=
EXTT13=
EXTT14=
EXTT15=
PLAYORDER=
